<svg width="26" height="27" viewBox="0 0 26 27" fill="none" xmlns="http://www.w3.org/2000/svg">
<path d="M22 0.823532H4.29412C2.19868 0.823532 0.5 2.52222 0.5 4.61765V22.3235C0.5 24.419 2.19868 26.1176 4.29412 26.1176H22C24.0954 26.1176 25.7941 24.419 25.7941 22.3235V4.61765C25.7941 2.52222 24.0954 0.823532 22 0.823532Z" fill="#4175FA"/>
<path d="M17.5992 11.29C13.9743 11.29 13.9696 14.9013 13.9696 14.9199C13.9696 14.9199 13.7212 18.5357 17.5992 18.5357C17.5992 18.5357 20.8334 18.7196 20.8334 16.0192H19.1727C19.1727 16.0192 19.2278 17.0358 17.6545 17.0358C17.6545 17.0358 15.9938 17.1463 15.9938 15.3935H20.8887C20.8887 15.3935 21.427 11.29 17.5992 11.29ZM15.9752 14.1283C15.9752 14.1283 16.1777 12.6746 17.6362 12.6746C19.0991 12.6746 19.076 14.1283 19.076 14.1283H15.9752ZM11.8261 13.1992C11.8261 13.1992 13.266 13.0934 13.266 11.4005C13.266 9.71224 12.0883 8.884 10.5931 8.884H5.67505V18.3377H10.5927C10.5927 18.3377 13.5969 18.4299 13.5969 15.5454C13.5971 15.5454 13.7259 13.1992 11.8261 13.1992ZM7.84199 10.563H10.5929C10.5929 10.563 11.2601 10.563 11.2601 11.5474C11.2601 12.5318 10.869 12.6746 10.4227 12.6746H7.84199V10.563ZM10.4551 16.6588H7.84199V14.1285H10.5929C10.5929 14.1285 11.5914 14.1193 11.5867 15.4304C11.5867 16.5347 10.8462 16.6496 10.4551 16.6588ZM15.5658 9.44112V10.6051H19.4671V9.44112H15.5658Z" fill="white"/>
</svg>
