<svg width="29" height="29" viewBox="0 0 29 29" fill="none" xmlns="http://www.w3.org/2000/svg">
<path d="M22.5832 5.08337H6.24988C5.32162 5.08337 4.43138 5.45212 3.775 6.1085C3.11863 6.76488 2.74988 7.65512 2.74988 8.58337V20.25C2.74988 21.1783 3.11863 22.0685 3.775 22.7249C4.43138 23.3813 5.32162 23.75 6.24988 23.75H22.5832C23.5115 23.75 24.4017 23.3813 25.0581 22.7249C25.7145 22.0685 26.0832 21.1783 26.0832 20.25V8.58337C26.0832 7.65512 25.7145 6.76488 25.0581 6.1085C24.4017 5.45212 23.5115 5.08337 22.5832 5.08337ZM21.8015 7.41671L14.4165 12.9584L7.03154 7.41671H21.8015ZM22.5832 21.4167H6.24988C5.94046 21.4167 5.64371 21.2938 5.42492 21.075C5.20613 20.8562 5.08321 20.5595 5.08321 20.25V8.87504L13.7165 15.35C13.9185 15.5015 14.1641 15.5834 14.4165 15.5834C14.669 15.5834 14.9146 15.5015 15.1165 15.35L23.7499 8.87504V20.25C23.7499 20.5595 23.627 20.8562 23.4082 21.075C23.1894 21.2938 22.8926 21.4167 22.5832 21.4167Z" fill="white"/>
</svg>
