<svg width="26" height="27" viewBox="0 0 26 27" fill="none" xmlns="http://www.w3.org/2000/svg">
<path d="M8.93238 13.5294C8.93238 11.2012 10.8193 9.31339 13.1476 9.31339C15.4758 9.31339 17.3638 11.2012 17.3638 13.5294C17.3638 15.8576 15.4758 17.7454 13.1476 17.7454C10.8193 17.7454 8.93238 15.8576 8.93238 13.5294ZM6.65319 13.5294C6.65319 17.1161 9.56072 20.0235 13.1476 20.0235C16.7344 20.0235 19.6419 17.1161 19.6419 13.5294C19.6419 9.94271 16.7344 7.0353 13.1476 7.0353C9.56072 7.0353 6.65319 9.94271 6.65319 13.5294ZM18.3813 6.77781C18.381 7.61598 19.0602 8.29573 19.8984 8.29606C20.7366 8.2964 21.4164 7.61719 21.4167 6.77902C21.4171 5.94085 20.7379 5.2611 19.8996 5.26077C19.0618 5.26116 18.3821 5.94003 18.3813 6.77781ZM8.03795 23.8238C6.80486 23.7677 6.13464 23.5623 5.68925 23.3888C5.09876 23.1589 4.67744 22.8851 4.23447 22.4428C3.7915 22.0004 3.5173 21.5795 3.28843 20.9891C3.11481 20.5439 2.90941 19.8735 2.85336 18.6404C2.79204 17.3073 2.7798 16.9069 2.7798 13.5295C2.7798 10.1521 2.79305 9.7528 2.85336 8.41859C2.90951 7.18555 3.11643 6.51647 3.28843 6.06998C3.51832 5.47951 3.79211 5.05821 4.23447 4.61526C4.67683 4.17231 5.09774 3.89812 5.68925 3.66926C6.13444 3.49564 6.80486 3.29025 8.03795 3.2342C9.3711 3.17289 9.77158 3.16065 13.1476 3.16065C16.5236 3.16065 16.9244 3.1739 18.2587 3.2342C19.4918 3.29035 20.1609 3.49726 20.6074 3.66926C21.1979 3.89812 21.6192 4.17292 22.0622 4.61526C22.5051 5.0576 22.7783 5.47951 23.0082 6.06998C23.1818 6.51515 23.3872 7.18555 23.4433 8.41859C23.5046 9.7528 23.5168 10.1521 23.5168 13.5295C23.5168 16.9069 23.5046 17.3062 23.4433 18.6404C23.3871 19.8735 23.1807 20.5437 23.0082 20.9891C22.7783 21.5795 22.5045 22.0008 22.0622 22.4428C21.6198 22.8847 21.1979 23.1589 20.6074 23.3888C20.1622 23.5624 19.4918 23.7678 18.2587 23.8238C16.9255 23.8851 16.5251 23.8974 13.1476 23.8974C9.77006 23.8974 9.3707 23.8851 8.03795 23.8238ZM7.93323 0.958945C6.58682 1.02026 5.66678 1.23374 4.86331 1.54638C4.0312 1.86923 3.32678 2.30237 2.62287 3.00514C1.91896 3.70791 1.48691 4.41341 1.16405 5.24549C0.8514 6.04944 0.637909 6.96893 0.576594 8.31528C0.514266 9.66376 0.5 10.0949 0.5 13.5294C0.5 16.9639 0.514266 17.3951 0.576594 18.7435C0.637909 20.09 0.8514 21.0094 1.16405 21.8133C1.48691 22.6449 1.91906 23.3512 2.62287 24.0537C3.32668 24.7562 4.0312 25.1887 4.86331 25.5125C5.6683 25.8251 6.58682 26.0386 7.93323 26.0999C9.28247 26.1612 9.71289 26.1765 13.1476 26.1765C16.5822 26.1765 17.0134 26.1622 18.3619 26.0999C19.7084 26.0386 20.6278 25.8251 21.4318 25.5125C22.2634 25.1887 22.9683 24.7565 23.6723 24.0537C24.3762 23.3509 24.8073 22.6449 25.1311 21.8133C25.4437 21.0094 25.6582 20.0899 25.7185 18.7435C25.7799 17.3941 25.7941 16.9639 25.7941 13.5294C25.7941 10.0949 25.7799 9.66376 25.7185 8.31528C25.6572 6.96883 25.4437 6.04893 25.1311 5.24549C24.8073 4.41392 24.3751 3.70902 23.6723 3.00514C22.9695 2.30125 22.2634 1.86923 21.4328 1.54638C20.6278 1.23374 19.7083 1.01925 18.3629 0.958945C17.0144 0.897632 16.5833 0.882355 13.1486 0.882355C9.7139 0.882355 9.28247 0.896621 7.93323 0.958945Z" fill="url(#paint0_radial_417_287)"/>
<defs>
<radialGradient id="paint0_radial_417_287" cx="0" cy="0" r="1" gradientUnits="userSpaceOnUse" gradientTransform="translate(54.2697 407.5) scale(528.331)">
<stop offset="0.09" stop-color="#FA8F21"/>
<stop offset="0.78" stop-color="#D82D7E"/>
</radialGradient>
</defs>
</svg>
