<svg width="29" height="28" viewBox="0 0 29 28" fill="none" xmlns="http://www.w3.org/2000/svg">
<path d="M14.4166 0C6.68458 0 0.416626 6.26795 0.416626 14C0.416626 21.732 6.68458 28 14.4166 28C22.1487 28 28.4166 21.732 28.4166 14C28.4166 6.26795 22.1487 0 14.4166 0Z" fill="#40B3E0"/>
<path d="M21.2287 8.05336L18.7282 20.6607C18.7282 20.6607 18.3785 21.535 17.4168 21.1154L11.6464 16.6914L9.54812 15.6772L6.01596 14.4881C6.01596 14.4881 5.4739 14.2958 5.4214 13.8762C5.36901 13.4565 6.03346 13.2292 6.03346 13.2292L20.0746 7.72108C20.0746 7.72108 21.2287 7.21401 21.2287 8.05336Z" fill="white"/>
<path d="M11.203 20.5191C11.203 20.5191 11.0345 20.5034 10.8246 19.8388C10.6148 19.1744 9.54822 15.6772 9.54822 15.6772L18.0288 10.2916C18.0288 10.2916 18.5185 9.9943 18.501 10.2916C18.501 10.2916 18.5884 10.344 18.3261 10.5888C18.0638 10.8336 11.664 16.5864 11.664 16.5864" fill="#D2E5F1"/>
<path d="M13.8591 18.3876L11.5766 20.4686C11.5766 20.4686 11.3982 20.604 11.203 20.5191L11.6401 16.6537" fill="#B5CFE4"/>
</svg>
